# Alias OBJ Model File
# Exported from SketchUp, (c) 2000-2012 Trimble Navigation Limited
# File units = meters

mtllib PROVA.mtl

g Mesh1 Group1 Model

usemtl FrontColor
v 0.334465 2.08 -0.503087
vt 0 0
vn 0 1 -0
v 2.40447 2.08 -0.503087
vt 81.4961 0
v 2.40447 2.08 -3.28309
vt 81.4961 109.449
v 0.334465 2.08 -3.28309
vt 0 109.449
f 1/1/1 2/2/1 3/3/1 4/4/1 

v 0.334465 -3.60956e-16 -0.503087
vn 0 0 1
v 2.40447 -3.60956e-16 -0.503087
vt 81.4961 81.8898
vt 0 81.8898
f 5/1/2 6/2/2 2/5/2 1/6/2 

vt -81.4961 0
vn 0 -1 -0
v 0.334465 -3.60956e-16 -3.28309
v 2.40447 -3.60956e-16 -3.28309
vt -81.4961 109.449
f 6/7/3 5/1/3 7/4/3 8/8/3 

vt -109.449 0
vn -1 0 -0
vt -109.449 81.8898
f 7/9/4 5/1/4 1/6/4 4/10/4 

vn 0 0 -1
vt -81.4961 81.8898
f 8/7/5 7/1/5 4/6/5 3/11/5 

vn 1 0 -0
vt 109.449 0
vt 109.449 81.8898
f 6/1/6 8/12/6 3/13/6 2/6/6 

